<?xml version="1.0" encoding="utf-8"?>
<!-- Generator: Adobe Illustrator 26.2.1, SVG Export Plug-In . SVG Version: 6.00 Build 0)  -->
<svg version="1.1" id="Layer_1" xmlns="http://www.w3.org/2000/svg" xmlns:xlink="http://www.w3.org/1999/xlink" x="0px" y="0px"
	 viewBox="0 0 579.74 257.87" style="enable-background:new 0 0 579.74 257.87;" xml:space="preserve">
<style type="text/css">
	.st0{fill:#3BBAB1;}
</style>
<g>
	<path class="st0" d="M472.48,207.57c0,2.8,0,5.03,0,7.52c-12.32,1.96-24.57,3.91-37,5.89c0-2.72,0-5.13,0-7.69
		C447.77,211.39,459.95,209.51,472.48,207.57z"/>
	<path class="st0" d="M183.48,134.57c0,2.8,0,5.03,0,7.52c-12.32,1.96-24.57,3.91-37,5.89c0-2.72,0-5.13,0-7.69
		C158.77,138.39,170.95,136.51,183.48,134.57z"/>
	<path class="st0" d="M154.34,97.33c-0.1,4.54,0.49,8.87,2.65,12.85c3.62,6.66,12.37,7.49,17.59,1.72c0.6-0.67,1.36-1.35,1.62-2.16
		c1.04-3.27,3.14-3.41,6.04-2.67c3.75,0.95,7.6,1.49,11.67,2.25c-3.36,7.97-7.81,14.83-15.91,18.06
		c-17.55,6.99-35.88-0.92-40.39-21.35c-2.82-12.76-1.32-24.91,6.34-35.73c8.9-12.57,25.88-15.17,38.07-5.72
		c5.32,4.12,9.16,9.62,10.37,16.55c0.39,2.22-0.04,3.49-2.56,4.3C177.99,89.23,166.24,93.3,154.34,97.33z"/>
	<path class="st0" d="M433.56,135.75c-0.19,8.68,1.02,16.65,5.1,24.26c6.83,12.74,23.36,14.33,33.22,3.29
		c1.14-1.28,0.68-0.55,3.05-4.13c3.61-5.46,5.93-6.53,11.41-5.12c7.08,1.82,14.36,2.84,22.04,4.3
		c-6.35,15.26-14.75,28.38-30.05,34.56c-33.15,13.38-67.75-1.76-76.27-40.86c-5.32-24.41-2.5-47.66,11.98-68.36
		c16.81-24.05,48.87-29.02,71.89-10.95c10.04,7.87,17.3,18.4,19.58,31.68c0.73,4.25-0.08,6.67-4.83,8.22
		C478.33,119.94,456.04,128.06,433.56,135.75z"/>
	<path class="st0" d="M128.63,109.27c-5.18,14.35-17.62,22.98-32.85,19.99c-14.05-2.76-22.79-13.21-24.14-27.74
		c-0.9-9.7,0.23-18.89,4.78-27.59c7.89-15.07,26.37-19.75,39.99-9.63c6.02,4.48,10.28,10.61,11.11,18.46
		c0.07,0.66-0.69,1.85-1.31,2.07c-11.5,3.94-23.03,7.82-34.6,11.57c-1.79,0.58-2.75,1.33-2.32,3.19c0.82,3.55,1.19,7.35,2.75,10.56
		c3.03,6.26,10.42,7.53,15.84,3.14c1.24-1.01,2.68-2.22,3.17-3.63c1.19-3.41,3.37-3.17,6.13-2.54
		C120.96,107.96,124.79,108.56,128.63,109.27z"/>
	<path class="st0" d="M200.16,65.12c12.35,0,24.53,0,37,0c0,3.73,0,7.39,0,11.06c0.16,0.16,0.32,0.32,0.48,0.47
		c9.3-11.51,21.26-16.54,35.85-15.69c14.75,0.86,25.91,7.58,33.55,19.48c4.22-3.91,7.96-8.45,12.66-11.53
		c15.24-9.99,31.46-11.14,47.83-2.97c8.95,4.46,13.6,12.7,16.42,21.98c2.61,8.55,3.34,17.36,3.33,26.27
		c-0.04,26.44-0.01,52.88-0.02,79.31c0,0.79-0.09,1.58-0.15,2.54c-1.04,0.05-1.92,0.12-2.81,0.12c-10.41,0.01-20.82-0.09-31.23,0.07
		c-2.68,0.04-3.26-0.81-3.25-3.36c0.1-23.63,0.21-47.26-0.04-70.89c-0.07-6.27-0.83-12.64-2.25-18.75
		c-1.87-8.05-7.04-12.11-14.09-12.45c-8.06-0.39-13.98,3.48-17.19,11.08c-3.31,7.85-3.83,16.16-3.88,24.47
		c-0.14,22.09-0.05,44.18-0.05,66.28c0,1.07,0,2.14,0,3.4c-1.02,0.07-1.81,0.16-2.6,0.16c-10.68,0.01-21.37-0.06-32.05,0.06
		c-2.38,0.03-2.8-0.83-2.8-2.97c0.07-23.99,0.05-47.99,0.04-71.98c0-6.71-0.41-13.37-2.86-19.74c-2.45-6.37-6.73-10.39-13.85-10.76
		c-7.54-0.39-13.14,2.62-16.54,9.46c-3.56,7.16-4.25,14.93-4.3,22.72c-0.14,23.18-0.05,46.36-0.05,69.54c0,1.08,0,2.16,0,3.46
		c-12.42,0-24.68,0-37.15,0C200.16,152.44,200.16,108.95,200.16,65.12z"/>
</g>
</svg>
