<?xml version="1.0" encoding="utf-8"?>
<!-- Generator: Adobe Illustrator 25.0.0, SVG Export Plug-In . SVG Version: 6.00 Build 0)  -->
<svg version="1.1" id="Layer_1" xmlns="http://www.w3.org/2000/svg" xmlns:xlink="http://www.w3.org/1999/xlink" x="0px" y="0px"
	 viewBox="0 0 1000 590" style="enable-background:new 0 0 1000 590;" xml:space="preserve">
<style type="text/css">
	.st0{fill:#3BBAB1;}
</style>
<g>
	<path class="st0" d="M674.33,318.62c-0.8,36.37,3.91,71.09,21.2,102.96c28.98,53.37,99.12,60.01,140.92,13.79
		c4.85-5.38,10.89-10.82,12.94-17.31c8.31-26.17,25.16-27.33,48.44-21.44c30.04,7.65,60.9,11.93,93.5,18.04
		c-26.95,63.87-62.59,118.83-127.47,144.71c-140.63,56.02-287.47-7.39-323.62-171.08c-22.55-102.21-10.58-199.55,50.83-286.21
		C662.41,1.38,798.4-19.43,896.1,56.22c42.57,32.96,73.38,77.05,83.07,132.61c3.09,17.8-0.36,27.94-20.5,34.43
		C863.84,253.79,769.72,286.41,674.33,318.62"/>
	<path class="st0" d="M467.52,414.32c-41.51,114.99-141.16,184.1-263.18,160.12C91.81,552.32,21.74,468.6,10.95,352.21
		c-7.2-77.73,1.84-151.33,38.35-221.07C112.48,10.43,260.53-27.07,369.7,54.02c48.27,35.83,82.37,85,89.03,147.88
		c0.56,5.26-5.51,14.85-10.5,16.56c-92.17,31.56-184.53,62.64-277.21,92.68c-14.29,4.64-22.05,10.65-18.62,25.52
		c6.57,28.47,9.56,58.87,22.02,84.59c24.27,50.13,83.45,60.37,126.92,25.19c9.97-8.09,21.44-17.77,25.38-29.12
		c9.51-27.31,27.04-25.38,49.09-20.36C406.06,403.86,436.83,408.62,467.52,414.32"/>
</g>
</svg>
