<?xml version="1.0" encoding="UTF-8"?>
<svg width="48px" height="48px" viewBox="0 0 48 48" version="1.1" xmlns="http://www.w3.org/2000/svg" xmlns:xlink="http://www.w3.org/1999/xlink">
    <!-- Generator: Sketch 58 (84663) - https://sketch.com -->
    <title>ic_instagram</title>
    <desc>Created with Sketch.</desc>
    <defs>
        <linearGradient x1="5.46122917e-07%" y1="117.499583%" x2="114.499583%" y2="-10.4999792%" id="linearGradient-1">
            <stop stop-color="#F58529" offset="0%"></stop>
            <stop stop-color="#FEDA77" offset="16.9%"></stop>
            <stop stop-color="#DD2A7B" offset="47.8%"></stop>
            <stop stop-color="#8134AF" offset="78%"></stop>
            <stop stop-color="#515BD4" offset="100%"></stop>
        </linearGradient>
    </defs>
    <g id="Page-1" stroke="none" stroke-width="1" fill="none" fill-rule="evenodd">
        <g id="ic_instagram">
            <path d="M24,0 C37.2549,0 48,10.7451 48,24 C48,37.2549 37.2549,48 24,48 C10.7451,48 0,37.2549 0,24 C0,10.7451 10.7451,0 24,0 Z" id="Path" fill="url(#linearGradient-1)"></path>
            <path d="M24.0161,12.524 C27.7611,12.524 28.2045,12.5404 29.6773,12.6061 C31.0461,12.6663 31.7852,12.8963 32.278,13.0879 C32.9295,13.3397 33.4003,13.6463 33.8876,14.1336 C34.3804,14.6263 34.6815,15.0917 34.9334,15.7432 C35.125,16.236 35.3549,16.9806 35.4152,18.3439 C35.4809,19.8221 35.4973,20.2656 35.4973,24.005 C35.4973,27.7499 35.4809,28.1933 35.4152,29.6661 C35.3549,31.0348 35.125,31.774 34.9334,32.2667 C34.6815,32.9182 34.3749,33.3891 33.8876,33.8763 C33.3949,34.3691 32.9295,34.6702 32.278,34.9221 C31.7852,35.1137 31.0406,35.3436 29.6773,35.4039 C28.1991,35.4696 27.7556,35.486 24.0161,35.486 C20.2712,35.486 19.8277,35.4696 18.3549,35.4039 C16.9862,35.3436 16.247,35.1137 15.7543,34.9221 C15.1027,34.6702 14.6319,34.3636 14.1446,33.8763 C13.6519,33.3836 13.3507,32.9182 13.0989,32.2667 C12.9072,31.774 12.6773,31.0294 12.6171,29.6661 C12.5514,28.1879 12.5349,27.7444 12.5349,24.005 C12.5349,20.2601 12.5514,19.8166 12.6171,18.3439 C12.6773,16.9751 12.9072,16.236 13.0989,15.7432 C13.3507,15.0917 13.6573,14.6209 14.1446,14.1336 C14.6374,13.6409 15.1027,13.3397 15.7543,13.0879 C16.247,12.8963 16.9916,12.6663 18.3549,12.6061 C19.8277,12.5404 20.2712,12.524 24.0161,12.524 Z M24.0161,10 C20.211,10 19.7346,10.0164 18.2399,10.0821 C16.7507,10.1478 15.7269,10.3887 14.8399,10.7336 C13.9147,11.095 13.1317,11.5713 12.3543,12.3542 C11.5713,13.1317 11.095,13.9146 10.7337,14.8344 C10.3887,15.7268 10.1478,16.7452 10.0821,18.2344 C10.0164,19.7345 10,20.2108 10,24.0159 C10,27.821 10.0164,28.2973 10.0821,29.792 C10.1478,31.2812 10.3887,32.305 10.7337,33.192 C11.095,34.1172 11.5713,34.9002 12.3543,35.6776 C13.1317,36.4551 13.9147,36.9369 14.8345,37.2927 C15.7269,37.6376 16.7453,37.8785 18.2345,37.9442 C19.7292,38.0099 20.2055,38.0264 24.0106,38.0264 C27.8158,38.0264 28.2921,38.0099 29.7868,37.9442 C31.276,37.8785 32.2999,37.6376 33.1868,37.2927 C34.1066,36.9369 34.8896,36.4551 35.667,35.6776 C36.4445,34.9002 36.9263,34.1172 37.2822,33.1974 C37.6271,32.305 37.868,31.2867 37.9337,29.7975 C37.9994,28.3028 38.0158,27.8265 38.0158,24.0214 C38.0158,20.2163 37.9994,19.74 37.9337,18.2453 C37.868,16.7561 37.6271,15.7323 37.2822,14.8453 C36.9372,13.9146 36.4609,13.1317 35.678,12.3542 C34.9005,11.5768 34.1176,11.095 33.1978,10.7391 C32.3053,10.3942 31.287,10.1533 29.7978,10.0876 C28.2976,10.0164 27.8213,10 24.0161,10 Z M24.0161,16.8164 C20.0412,16.8164 16.8164,20.0411 16.8164,24.0159 C16.8164,27.9908 20.0412,31.2155 24.0161,31.2155 C27.991,31.2155 31.2158,27.9908 31.2158,24.0159 C31.2158,20.0411 27.991,16.8164 24.0161,16.8164 Z M24.0161,28.6861 C21.4374,28.6861 19.3459,26.5946 19.3459,24.0159 C19.3459,21.4372 21.4374,19.3458 24.0161,19.3458 C26.5948,19.3458 28.6863,21.4372 28.6863,24.0159 C28.6863,26.5946 26.5948,28.6861 24.0161,28.6861 Z M31.5005,18.2125 C32.4257,18.2125 33.1813,17.4624 33.1813,16.5317 C33.1813,15.6064 32.4257,14.8508 31.5005,14.8508 C30.5752,14.8508 29.8196,15.6009 29.8196,16.5317 C29.8196,17.4569 30.5697,18.2125 31.5005,18.2125 Z" id="Shape" fill="#FFFFFF"></path>
        </g>
    </g>
</svg>